<svg width="50" height="25" viewBox="0 0 79 60" fill="none" xmlns="http://www.w3.org/2000/svg">
<path d="M67.1867 34.5453L58.95 42.782C57.5184 44.2136 57.5184 46.5418 58.95 47.9733L67.1837 56.2071H59.7031L54.3325 50.8365L49.3922 45.8962C49.2159 45.7199 49.177 45.5167 49.177 45.3762C49.177 45.2387 49.2129 45.0355 49.3922 44.8562L59.7031 34.5453H67.1867ZM74.2788 31.6074H58.4897L47.3181 42.779C45.8835 44.2136 45.8835 46.5388 47.3181 47.9703L52.2584 52.9106L58.4897 59.142H74.2788L72.0881 56.9513L61.0301 45.8932C60.7432 45.6063 60.7432 45.1401 61.0301 44.8562L74.2788 31.6074Z" fill="#62D84E"/>
<path d="M54.5102 47.9737L53.6823 48.8015L49.5699 52.9139L43.3595 59.1244H29.5011L28.7958 59.0975C28.3923 59.1154 27.9858 59.1244 27.5764 59.1244L20.5202 58.2128C8.70896 55.0986 0 44.3395 0 31.551C0 18.7625 8.70896 8.00332 20.5202 4.88615L27.5764 3.97461H53.6823C53.6823 10.0804 48.7331 15.0297 42.6273 15.0297H27.7378C23.3295 15.0297 19.0647 16.7183 15.9385 19.8235C12.8453 22.8928 11.1148 26.9664 11.0551 31.3149C10.9923 35.768 12.7437 40.0836 15.8937 43.2337C19.0139 46.3538 23.1621 48.0723 27.5764 48.0723H38.6255L40.8012 45.8966C41.0881 45.6097 41.0881 45.1434 40.8012 44.8565L40.4217 44.4769L39.2172 43.2725L27.5495 31.6078H43.3356L44.0768 32.349L53.2042 41.4763L54.5072 42.7794C55.9418 44.2139 55.9418 46.5391 54.5102 47.9737Z" fill="white"/>
<path d="M74.279 0.939453C71.8582 0.939453 69.8887 2.90898 69.8887 5.3298C69.8887 7.75061 71.8582 9.72014 74.279 9.72014C76.6998 9.72014 78.6694 7.75061 78.6694 5.3298C78.6694 2.90898 76.6998 0.939453 74.279 0.939453ZM74.279 9.42127C72.0226 9.42127 70.1875 7.58624 70.1875 5.3298C70.1875 3.07336 72.0226 1.23832 74.279 1.23832C76.5355 1.23832 78.3705 3.07336 78.3705 5.3298C78.3705 7.58624 76.5355 9.42127 74.279 9.42127Z" fill="white"/>
<path d="M73.3703 3.64258V4.00122H72.4498V7.01977H72.0105V4.00122H71.084V3.64258H73.3703Z" fill="white"/>
<path d="M77.1761 3.66602V7.0163H76.7337V4.51778L75.619 7.0163H75.3081L74.1904 4.51181V7.0163H73.748V3.66602H74.2233L75.4635 6.4365L76.7038 3.66602H77.1761Z" fill="white"/>
</svg>
