<svg width="50" height="25" viewBox="0 0 79 60" fill="none" xmlns="http://www.w3.org/2000/svg">
<path d="M67.1867 34.4789L58.95 42.7156C57.5184 44.1472 57.5184 46.4754 58.95 47.9069L67.1837 56.1407H59.7031L54.3325 50.7701L49.3922 45.8298C49.2159 45.6535 49.177 45.4502 49.177 45.3098C49.177 45.1723 49.2129 44.9691 49.3922 44.7898L59.7031 34.4789H67.1867ZM74.2788 31.541H58.4897L47.3181 42.7126C45.8835 44.1472 45.8835 46.4724 47.3181 47.9039L52.2584 52.8442L58.4897 59.0756H74.2788L72.0881 56.8849L61.0301 45.8268C60.7432 45.5399 60.7432 45.0737 61.0301 44.7898L74.2788 31.541Z" fill="#62D84E"/>
<path d="M54.5102 47.9073L53.6823 48.7351L49.5699 52.8475L43.3595 59.058H29.5011L28.7958 59.0311C28.3923 59.049 27.9858 59.058 27.5764 59.058L20.5202 58.1464C8.70896 55.0322 0 44.2731 0 31.4846C0 18.6961 8.70896 7.93692 20.5202 4.81974L27.5764 3.9082H53.6823C53.6823 10.014 48.7331 14.9633 42.6273 14.9633H27.7378C23.3295 14.9633 19.0647 16.6519 15.9385 19.7571C12.8453 22.8264 11.1148 26.9 11.0551 31.2485C10.9923 35.7016 12.7437 40.0172 15.8937 43.1673C19.0139 46.2874 23.1621 48.0059 27.5764 48.0059H38.6255L40.8012 45.8302C41.0881 45.5432 41.0881 45.077 40.8012 44.7901L40.4217 44.4105L39.2172 43.2061L27.5495 31.5414H43.3356L44.0768 32.2826L53.2042 41.4099L54.5072 42.713C55.9418 44.1475 55.9418 46.4727 54.5102 47.9073Z" fill="#032D42"/>
<path d="M74.279 0.87207C71.8582 0.87207 69.8887 2.8416 69.8887 5.26241C69.8887 7.68323 71.8582 9.65276 74.279 9.65276C76.6998 9.65276 78.6694 7.68323 78.6694 5.26241C78.6694 2.8416 76.6998 0.87207 74.279 0.87207ZM74.279 9.35389C72.0226 9.35389 70.1875 7.51885 70.1875 5.26241C70.1875 3.00597 72.0226 1.17094 74.279 1.17094C76.5355 1.17094 78.3705 3.00597 78.3705 5.26241C78.3705 7.51885 76.5355 9.35389 74.279 9.35389Z" fill="#032D42"/>
<path d="M73.3703 3.5752V3.93383H72.4498V6.95238H72.0105V3.93383H71.084V3.5752H73.3703Z" fill="#032D42"/>
<path d="M77.1761 3.59863V6.94892H76.7337V4.4504L75.619 6.94892H75.3081L74.1904 4.44442V6.94892H73.748V3.59863H74.2233L75.4635 6.36912L76.7038 3.59863H77.1761Z" fill="#032D42"/>
</svg>
