<svg width="180" height="46" viewBox="0 0 219 61" fill="none" xmlns="http://www.w3.org/2000/svg">
<path d="M67.1779 32.225L58.9412 40.4617C57.5096 41.8933 57.5096 44.2215 58.9412 45.653L67.1749 53.8868H59.6943L54.3237 48.5162L49.3834 43.5759C49.2071 43.3996 49.1683 43.1963 49.1683 43.0559C49.1683 42.9184 49.2041 42.7152 49.3834 42.5358L59.6943 32.225H67.1779ZM74.27 29.2871H58.4809L47.3093 40.4587C45.8748 41.8933 45.8748 44.2185 47.3093 45.65L52.2496 50.5903L58.4809 56.8216H74.27L72.0793 54.631L61.0213 43.5729C60.7344 43.286 60.7344 42.8198 61.0213 42.5358L74.27 29.2871Z" fill="#62D84E"/>
<path d="M54.5014 45.6534L53.6736 46.4812L49.5612 50.5936L43.3507 56.8041H29.4923L28.787 56.7772C28.3835 56.7951 27.977 56.8041 27.5676 56.8041L20.5114 55.8925C8.70017 52.7783 -0.00878906 42.0192 -0.00878906 29.2307C-0.00878906 16.4422 8.70017 5.68301 20.5114 2.56584L27.5676 1.6543H53.6736C53.6736 7.76013 48.7243 12.7094 42.6185 12.7094H27.729C23.3207 12.7094 19.0559 14.3979 15.9297 17.5032C12.8365 20.5725 11.106 24.6461 11.0463 28.9946C10.9835 33.4477 12.7349 37.7633 15.8849 40.9133C19.0051 44.0335 23.1533 45.752 27.5676 45.752H38.6167L40.7924 43.5762C41.0793 43.2893 41.0793 42.8231 40.7924 42.5362L40.4129 42.1566L39.2084 40.9522L27.5407 29.2875H43.3268L44.068 30.0286L53.1954 39.156L54.4984 40.4591C55.933 41.8936 55.933 44.2188 54.5014 45.6534Z" fill="#032D42"/>
<path d="M214.395 11.7285L205.745 22.8639L203.207 19.5901L209.289 11.7285H214.395Z" fill="#62D84E"/>
<path d="M190.792 11.7285L200.043 23.6673L190.792 35.6061H195.898L202.584 26.9749L209.293 35.6061H214.396L195.898 11.7285H190.792Z" fill="#62D84E"/>
<path d="M99.8886 34.7351C101.154 35.3132 102.569 35.6023 104.131 35.6023H118.63V22.7475H101.785V25.9612H115.413V32.3886H104.131C102.652 32.3886 101.383 32.0244 100.32 31.2961C99.2579 30.5678 98.4394 29.5991 97.8613 28.3865C97.2831 27.1776 96.994 25.8298 96.994 24.3543C96.994 22.8751 97.2831 21.5235 97.8613 20.3034C98.4394 19.0832 99.2579 18.1108 100.32 17.3938C101.383 16.6767 102.652 16.3163 104.131 16.3163H118.63V13.1025H104.131C102.565 13.1025 101.15 13.3916 99.8886 13.9698C98.6234 14.548 97.5384 15.3589 96.6261 16.3951C95.7138 17.4351 95.0117 18.6364 94.5199 19.9955C94.0281 21.3583 93.7803 22.8075 93.7803 24.3506C93.7803 25.9161 94.0281 27.3766 94.5199 28.7394C95.0117 30.1022 95.7138 31.2961 96.6261 32.3248C97.5384 33.3535 98.6234 34.1569 99.8886 34.7351Z" fill="#032D42"/>
<path d="M126.122 23.5547C126.122 22.8902 126.358 22.3232 126.828 21.8502C127.297 21.3809 127.868 21.1444 128.532 21.1444H140.587V17.9307H128.532C127.504 17.9307 126.561 18.1822 125.705 18.6853C124.849 19.1884 124.166 19.8642 123.663 20.7089C123.16 21.5574 122.908 22.5035 122.908 23.5547V35.6099H126.122V23.5547Z" fill="#032D42"/>
<path d="M141.279 32.8279C141.782 33.6764 142.462 34.3484 143.321 34.8515C144.177 35.3546 145.12 35.6061 146.148 35.6061H162.221V23.5547C162.221 22.5035 161.969 21.5574 161.466 20.7089C160.963 19.8642 160.287 19.1884 159.443 18.6853C158.594 18.1822 157.648 17.9307 156.597 17.9307H143.738V21.1444H156.597C157.261 21.1444 157.828 21.3809 158.301 21.8502C158.771 22.3232 159.007 22.8902 159.007 23.5547V24.3581H146.148C145.12 24.3581 144.177 24.6096 143.321 25.1127C142.465 25.6158 141.782 26.2916 141.279 27.1363C140.776 27.9848 140.524 28.9309 140.524 29.9821C140.524 31.0333 140.776 31.9832 141.279 32.8279ZM144.444 28.2776C144.913 27.8083 145.484 27.5718 146.148 27.5718H159.007V32.3924H146.148C145.484 32.3924 144.917 32.1559 144.444 31.6866C143.971 31.2173 143.738 30.6466 143.738 29.9821C143.738 29.3176 143.975 28.7507 144.444 28.2776Z" fill="#032D42"/>
<path d="M174.367 35.6084H183.209H184.786H186.423V11.498H183.209V17.9255H174.367C173.147 17.9255 172.006 18.1545 170.944 18.6163C169.881 19.0781 168.95 19.7163 168.147 20.5272C167.343 21.3419 166.716 22.2805 166.266 23.3392C165.815 24.4017 165.59 25.543 165.59 26.7632C165.59 27.9834 165.815 29.1247 166.266 30.1872C166.716 31.2497 167.343 32.1845 168.147 32.9992C168.95 33.8139 169.881 34.4521 170.944 34.9101C172.006 35.3757 173.147 35.6084 174.367 35.6084ZM169.562 29.579C169.059 28.7305 168.807 27.7957 168.807 26.767C168.807 25.7383 169.059 24.7959 169.562 23.9399C170.065 23.084 170.733 22.4007 171.571 21.8976C172.408 21.3945 173.339 21.143 174.367 21.143H183.209V32.391H174.367C173.339 32.3684 172.408 32.1056 171.571 31.6026C170.737 31.1032 170.065 30.4275 169.562 29.579Z" fill="#032D42"/>
<path d="M74.2702 0.438477C71.8494 0.438477 69.8799 2.408 69.8799 4.82882C69.8799 7.24964 71.8494 9.21916 74.2702 9.21916C76.691 9.21916 78.6606 7.24964 78.6606 4.82882C78.6606 2.408 76.691 0.438477 74.2702 0.438477ZM74.2702 8.9203C72.0138 8.9203 70.1787 7.08526 70.1787 4.82882C70.1787 2.57238 72.0138 0.737343 74.2702 0.737343C76.5267 0.737343 78.3617 2.57238 78.3617 4.82882C78.3617 7.08526 76.5267 8.9203 74.2702 8.9203Z" fill="#032D42"/>
<path d="M73.3615 3.1416V3.50024H72.441V6.51879H72.0017V3.50024H71.0752V3.1416H73.3615Z" fill="#032D42"/>
<path d="M77.1673 3.16504V6.51533H76.7249V4.01681L75.6102 6.51533H75.2993L74.1816 4.01083V6.51533H73.7393V3.16504H74.2145L75.4547 5.93553L76.695 3.16504H77.1673Z" fill="#032D42"/>
<path d="M102.195 49.5013C102.195 50.0313 102.07 50.5313 101.82 51.0013C101.57 51.4713 101.17 51.8563 100.62 52.1563C100.07 52.4463 99.3653 52.5913 98.5053 52.5913H96.6153V56.8213H94.9053V46.3963H98.5053C99.3053 46.3963 99.9803 46.5363 100.53 46.8163C101.09 47.0863 101.505 47.4563 101.775 47.9263C102.055 48.3963 102.195 48.9213 102.195 49.5013ZM98.5053 51.1963C99.1553 51.1963 99.6403 51.0513 99.9603 50.7613C100.28 50.4613 100.44 50.0413 100.44 49.5013C100.44 48.3613 99.7953 47.7913 98.5053 47.7913H96.6153V51.1963H98.5053ZM103.256 52.6513C103.256 51.8213 103.426 51.0863 103.766 50.4463C104.116 49.8063 104.586 49.3113 105.176 48.9613C105.776 48.6013 106.436 48.4213 107.156 48.4213C107.806 48.4213 108.371 48.5513 108.851 48.8113C109.341 49.0613 109.731 49.3763 110.021 49.7563V48.5563H111.746V56.8213H110.021V55.5913C109.731 55.9813 109.336 56.3063 108.836 56.5663C108.336 56.8263 107.766 56.9563 107.126 56.9563C106.416 56.9563 105.766 56.7763 105.176 56.4163C104.586 56.0463 104.116 55.5363 103.766 54.8863C103.426 54.2263 103.256 53.4813 103.256 52.6513ZM110.021 52.6813C110.021 52.1113 109.901 51.6163 109.661 51.1963C109.431 50.7763 109.126 50.4563 108.746 50.2363C108.366 50.0163 107.956 49.9063 107.516 49.9063C107.076 49.9063 106.666 50.0163 106.286 50.2363C105.906 50.4463 105.596 50.7613 105.356 51.1813C105.126 51.5913 105.011 52.0813 105.011 52.6513C105.011 53.2213 105.126 53.7213 105.356 54.1513C105.596 54.5813 105.906 54.9113 106.286 55.1413C106.676 55.3613 107.086 55.4713 107.516 55.4713C107.956 55.4713 108.366 55.3613 108.746 55.1413C109.126 54.9213 109.431 54.6013 109.661 54.1813C109.901 53.7513 110.021 53.2513 110.021 52.6813ZM115.702 49.7563C115.952 49.3363 116.282 49.0113 116.692 48.7813C117.112 48.5413 117.607 48.4213 118.177 48.4213V50.1913H117.742C117.072 50.1913 116.562 50.3613 116.212 50.7013C115.872 51.0413 115.702 51.6313 115.702 52.4713V56.8213H113.992V48.5563H115.702V49.7563ZM121.744 49.9513V54.5263C121.744 54.8363 121.814 55.0613 121.954 55.2013C122.104 55.3313 122.354 55.3963 122.704 55.3963H123.754V56.8213H122.404C121.634 56.8213 121.044 56.6413 120.634 56.2813C120.224 55.9213 120.019 55.3363 120.019 54.5263V49.9513H119.044V48.5563H120.019V46.5013H121.744V48.5563H123.754V49.9513H121.744ZM129.5 48.4213C130.15 48.4213 130.73 48.5563 131.24 48.8263C131.76 49.0963 132.165 49.4963 132.455 50.0263C132.745 50.5563 132.89 51.1963 132.89 51.9463V56.8213H131.195V52.2013C131.195 51.4613 131.01 50.8963 130.64 50.5063C130.27 50.1063 129.765 49.9063 129.125 49.9063C128.485 49.9063 127.975 50.1063 127.595 50.5063C127.225 50.8963 127.04 51.4613 127.04 52.2013V56.8213H125.33V48.5563H127.04V49.5013C127.32 49.1613 127.675 48.8963 128.105 48.7063C128.545 48.5163 129.01 48.4213 129.5 48.4213ZM142.646 52.4863C142.646 52.7963 142.626 53.0763 142.586 53.3263H136.271C136.321 53.9863 136.566 54.5163 137.006 54.9163C137.446 55.3163 137.986 55.5163 138.626 55.5163C139.546 55.5163 140.196 55.1313 140.576 54.3613H142.421C142.171 55.1213 141.716 55.7463 141.056 56.2363C140.406 56.7163 139.596 56.9563 138.626 56.9563C137.836 56.9563 137.126 56.7813 136.496 56.4313C135.876 56.0713 135.386 55.5713 135.026 54.9313C134.676 54.2813 134.501 53.5313 134.501 52.6813C134.501 51.8313 134.671 51.0863 135.011 50.4463C135.361 49.7963 135.846 49.2963 136.466 48.9463C137.096 48.5963 137.816 48.4213 138.626 48.4213C139.406 48.4213 140.101 48.5913 140.711 48.9313C141.321 49.2713 141.796 49.7513 142.136 50.3713C142.476 50.9813 142.646 51.6863 142.646 52.4863ZM140.861 51.9463C140.851 51.3163 140.626 50.8113 140.186 50.4313C139.746 50.0513 139.201 49.8613 138.551 49.8613C137.961 49.8613 137.456 50.0513 137.036 50.4313C136.616 50.8013 136.366 51.3063 136.286 51.9463H140.861ZM146.039 49.7563C146.289 49.3363 146.619 49.0113 147.029 48.7813C147.449 48.5413 147.944 48.4213 148.514 48.4213V50.1913H148.079C147.409 50.1913 146.899 50.3613 146.549 50.7013C146.209 51.0413 146.039 51.6313 146.039 52.4713V56.8213H144.329V48.5563H146.039V49.7563ZM161.272 49.5013C161.272 50.0313 161.147 50.5313 160.897 51.0013C160.647 51.4713 160.247 51.8563 159.697 52.1563C159.147 52.4463 158.442 52.5913 157.582 52.5913H155.692V56.8213H153.982V46.3963H157.582C158.382 46.3963 159.057 46.5363 159.607 46.8163C160.167 47.0863 160.582 47.4563 160.852 47.9263C161.132 48.3963 161.272 48.9213 161.272 49.5013ZM157.582 51.1963C158.232 51.1963 158.717 51.0513 159.037 50.7613C159.357 50.4613 159.517 50.0413 159.517 49.5013C159.517 48.3613 158.872 47.7913 157.582 47.7913H155.692V51.1963H157.582ZM164.613 49.7563C164.863 49.3363 165.193 49.0113 165.603 48.7813C166.023 48.5413 166.518 48.4213 167.088 48.4213V50.1913H166.653C165.983 50.1913 165.473 50.3613 165.123 50.7013C164.783 51.0413 164.613 51.6313 164.613 52.4713V56.8213H162.903V48.5563H164.613V49.7563ZM172.245 56.9563C171.465 56.9563 170.76 56.7813 170.13 56.4313C169.5 56.0713 169.005 55.5713 168.645 54.9313C168.285 54.2813 168.105 53.5313 168.105 52.6813C168.105 51.8413 168.29 51.0963 168.66 50.4463C169.03 49.7963 169.535 49.2963 170.175 48.9463C170.815 48.5963 171.53 48.4213 172.32 48.4213C173.11 48.4213 173.825 48.5963 174.465 48.9463C175.105 49.2963 175.61 49.7963 175.98 50.4463C176.35 51.0963 176.535 51.8413 176.535 52.6813C176.535 53.5213 176.345 54.2663 175.965 54.9163C175.585 55.5663 175.065 56.0713 174.405 56.4313C173.755 56.7813 173.035 56.9563 172.245 56.9563ZM172.245 55.4713C172.685 55.4713 173.095 55.3663 173.475 55.1563C173.865 54.9463 174.18 54.6313 174.42 54.2113C174.66 53.7913 174.78 53.2813 174.78 52.6813C174.78 52.0813 174.665 51.5763 174.435 51.1663C174.205 50.7463 173.9 50.4313 173.52 50.2213C173.14 50.0113 172.73 49.9063 172.29 49.9063C171.85 49.9063 171.44 50.0113 171.06 50.2213C170.69 50.4313 170.395 50.7463 170.175 51.1663C169.955 51.5763 169.845 52.0813 169.845 52.6813C169.845 53.5713 170.07 54.2613 170.52 54.7513C170.98 55.2313 171.555 55.4713 172.245 55.4713ZM181.556 48.4213C182.196 48.4213 182.761 48.5513 183.251 48.8113C183.751 49.0613 184.141 49.3763 184.421 49.7563V48.5563H186.146V56.9563C186.146 57.7163 185.986 58.3913 185.666 58.9813C185.346 59.5813 184.881 60.0513 184.271 60.3913C183.671 60.7313 182.951 60.9013 182.111 60.9013C180.991 60.9013 180.061 60.6363 179.321 60.1063C178.581 59.5863 178.161 58.8763 178.061 57.9763H179.756C179.886 58.4063 180.161 58.7513 180.581 59.0113C181.011 59.2813 181.521 59.4163 182.111 59.4163C182.801 59.4163 183.356 59.2063 183.776 58.7863C184.206 58.3663 184.421 57.7563 184.421 56.9563V55.5763C184.131 55.9663 183.736 56.2963 183.236 56.5663C182.746 56.8263 182.186 56.9563 181.556 56.9563C180.836 56.9563 180.176 56.7763 179.576 56.4163C178.986 56.0463 178.516 55.5363 178.166 54.8863C177.826 54.2263 177.656 53.4813 177.656 52.6513C177.656 51.8213 177.826 51.0863 178.166 50.4463C178.516 49.8063 178.986 49.3113 179.576 48.9613C180.176 48.6013 180.836 48.4213 181.556 48.4213ZM184.421 52.6813C184.421 52.1113 184.301 51.6163 184.061 51.1963C183.831 50.7763 183.526 50.4563 183.146 50.2363C182.766 50.0163 182.356 49.9063 181.916 49.9063C181.476 49.9063 181.066 50.0163 180.686 50.2363C180.306 50.4463 179.996 50.7613 179.756 51.1813C179.526 51.5913 179.411 52.0813 179.411 52.6513C179.411 53.2213 179.526 53.7213 179.756 54.1513C179.996 54.5813 180.306 54.9113 180.686 55.1413C181.076 55.3613 181.486 55.4713 181.916 55.4713C182.356 55.4713 182.766 55.3613 183.146 55.1413C183.526 54.9213 183.831 54.6013 184.061 54.1813C184.301 53.7513 184.421 53.2513 184.421 52.6813ZM190.102 49.7563C190.352 49.3363 190.682 49.0113 191.092 48.7813C191.512 48.5413 192.007 48.4213 192.577 48.4213V50.1913H192.142C191.472 50.1913 190.962 50.3613 190.612 50.7013C190.272 51.0413 190.102 51.6313 190.102 52.4713V56.8213H188.392V48.5563H190.102V49.7563ZM193.578 52.6513C193.578 51.8213 193.748 51.0863 194.088 50.4463C194.438 49.8063 194.908 49.3113 195.498 48.9613C196.098 48.6013 196.758 48.4213 197.478 48.4213C198.128 48.4213 198.693 48.5513 199.173 48.8113C199.663 49.0613 200.053 49.3763 200.343 49.7563V48.5563H202.068V56.8213H200.343V55.5913C200.053 55.9813 199.658 56.3063 199.158 56.5663C198.658 56.8263 198.088 56.9563 197.448 56.9563C196.738 56.9563 196.088 56.7763 195.498 56.4163C194.908 56.0463 194.438 55.5363 194.088 54.8863C193.748 54.2263 193.578 53.4813 193.578 52.6513ZM200.343 52.6813C200.343 52.1113 200.223 51.6163 199.983 51.1963C199.753 50.7763 199.448 50.4563 199.068 50.2363C198.688 50.0163 198.278 49.9063 197.838 49.9063C197.398 49.9063 196.988 50.0163 196.608 50.2363C196.228 50.4463 195.918 50.7613 195.678 51.1813C195.448 51.5913 195.333 52.0813 195.333 52.6513C195.333 53.2213 195.448 53.7213 195.678 54.1513C195.918 54.5813 196.228 54.9113 196.608 55.1413C196.998 55.3613 197.408 55.4713 197.838 55.4713C198.278 55.4713 198.688 55.3613 199.068 55.1413C199.448 54.9213 199.753 54.6013 199.983 54.1813C200.223 53.7513 200.343 53.2513 200.343 52.6813ZM214.319 48.4213C214.969 48.4213 215.549 48.5563 216.059 48.8263C216.579 49.0963 216.984 49.4963 217.274 50.0263C217.574 50.5563 217.724 51.1963 217.724 51.9463V56.8213H216.029V52.2013C216.029 51.4613 215.844 50.8963 215.474 50.5063C215.104 50.1063 214.599 49.9063 213.959 49.9063C213.319 49.9063 212.809 50.1063 212.429 50.5063C212.059 50.8963 211.874 51.4613 211.874 52.2013V56.8213H210.179V52.2013C210.179 51.4613 209.994 50.8963 209.624 50.5063C209.254 50.1063 208.749 49.9063 208.109 49.9063C207.469 49.9063 206.959 50.1063 206.579 50.5063C206.209 50.8963 206.024 51.4613 206.024 52.2013V56.8213H204.314V48.5563H206.024V49.5013C206.304 49.1613 206.659 48.8963 207.089 48.7063C207.519 48.5163 207.979 48.4213 208.469 48.4213C209.129 48.4213 209.719 48.5613 210.239 48.8413C210.759 49.1213 211.159 49.5263 211.439 50.0563C211.689 49.5563 212.079 49.1613 212.609 48.8713C213.139 48.5713 213.709 48.4213 214.319 48.4213Z" fill="#B9B9B9"/>
</svg>
