<svg width="180" height="46" viewBox="0 0 219 61" fill="none" xmlns="http://www.w3.org/2000/svg">
<path d="M67.1779 32.0604L58.9412 40.2972C57.5096 41.7287 57.5096 44.0569 58.9412 45.4885L67.1749 53.7222H59.6943L54.3237 48.3516L49.3834 43.4114C49.2071 43.235 49.1683 43.0318 49.1683 42.8913C49.1683 42.7538 49.2041 42.5506 49.3834 42.3713L59.6943 32.0604H67.1779ZM74.27 29.1226H58.4809L47.3093 40.2942C45.8748 41.7287 45.8748 44.0539 47.3093 45.4855L52.2496 50.4257L58.4809 56.6571H74.27L72.0793 54.4664L61.0213 43.4084C60.7344 43.1214 60.7344 42.6552 61.0213 42.3713L74.27 29.1226Z" fill="#62D84E"/>
<path d="M54.5014 45.4888L53.6736 46.3167L49.5612 50.4291L43.3507 56.6395H29.4923L28.787 56.6126C28.3835 56.6305 27.977 56.6395 27.5676 56.6395L20.5114 55.728C8.70017 52.6138 -0.00878906 41.8546 -0.00878906 29.0661C-0.00878906 16.2776 8.70017 5.51846 20.5114 2.40129L27.5676 1.48975H53.6736C53.6736 7.59558 48.7243 12.5448 42.6185 12.5448H27.729C23.3207 12.5448 19.0559 14.2334 15.9297 17.3386C12.8365 20.408 11.106 24.4815 11.0463 28.83C10.9835 33.2831 12.7349 37.5988 15.8849 40.7488C19.0051 43.869 23.1533 45.5874 27.5676 45.5874H38.6167L40.7924 43.4117C41.0793 43.1248 41.0793 42.6586 40.7924 42.3716L40.4129 41.9921L39.2084 40.7877L27.5407 29.1229H43.3268L44.068 29.8641L53.1954 38.9915L54.4984 40.2945C55.933 41.7291 55.933 44.0543 54.5014 45.4888Z" fill="white"/>
<path d="M214.395 11.564L205.745 22.6993L203.207 19.4256L209.289 11.564H214.395Z" fill="#62D84E"/>
<path d="M190.792 11.564L200.043 23.5028L190.792 35.4416H195.898L202.584 26.8104L209.293 35.4416H214.396L195.898 11.564H190.792Z" fill="#62D84E"/>
<path d="M99.8886 34.5705C101.154 35.1487 102.569 35.4378 104.131 35.4378H118.63V22.5829H101.785V25.7966H115.413V32.2241H104.131C102.652 32.2241 101.383 31.8599 100.32 31.1315C99.2579 30.4032 98.4394 29.4346 97.8613 28.2219C97.2831 27.013 96.994 25.6652 96.994 24.1898C96.994 22.7105 97.2831 21.359 97.8613 20.1388C98.4394 18.9187 99.2579 17.9463 100.32 17.2292C101.383 16.5121 102.652 16.1517 104.131 16.1517H118.63V12.938H104.131C102.565 12.938 101.15 13.2271 99.8886 13.8052C98.6234 14.3834 97.5384 15.1943 96.6261 16.2305C95.7138 17.2705 95.0117 18.4719 94.5199 19.831C94.0281 21.1938 93.7803 22.643 93.7803 24.186C93.7803 25.7516 94.0281 27.212 94.5199 28.5748C95.0117 29.9377 95.7138 31.1315 96.6261 32.1602C97.5384 33.1889 98.6234 33.9924 99.8886 34.5705Z" fill="white"/>
<path d="M126.122 23.3906C126.122 22.7261 126.358 22.1592 126.828 21.6861C127.297 21.2168 127.868 20.9803 128.532 20.9803H140.587V17.7666H128.532C127.504 17.7666 126.561 18.0181 125.705 18.5212C124.849 19.0243 124.166 19.7001 123.663 20.5448C123.16 21.3933 122.908 22.3394 122.908 23.3906V35.4458H126.122V23.3906Z" fill="white"/>
<path d="M141.279 32.6638C141.782 33.5123 142.462 34.1843 143.321 34.6874C144.177 35.1905 145.12 35.4421 146.148 35.4421H162.221V23.3906C162.221 22.3394 161.969 21.3933 161.466 20.5448C160.963 19.7001 160.287 19.0243 159.443 18.5212C158.594 18.0181 157.648 17.7666 156.597 17.7666H143.738V20.9803H156.597C157.261 20.9803 157.828 21.2168 158.301 21.6861C158.771 22.1592 159.007 22.7261 159.007 23.3906V24.194H146.148C145.12 24.194 144.177 24.4456 143.321 24.9487C142.465 25.4517 141.782 26.1275 141.279 26.9723C140.776 27.8207 140.524 28.7668 140.524 29.818C140.524 30.8693 140.776 31.8191 141.279 32.6638ZM144.444 28.1136C144.913 27.6443 145.484 27.4078 146.148 27.4078H159.007V32.2283H146.148C145.484 32.2283 144.917 31.9918 144.444 31.5225C143.971 31.0532 143.738 30.4826 143.738 29.818C143.738 29.1535 143.975 28.5866 144.444 28.1136Z" fill="white"/>
<path d="M174.367 35.4439H183.209H184.786H186.423V11.3335H183.209V17.7609H174.367C173.147 17.7609 172.006 17.9899 170.944 18.4517C169.881 18.9135 168.95 19.5518 168.147 20.3627C167.343 21.1774 166.716 22.116 166.266 23.1747C165.815 24.2372 165.59 25.3785 165.59 26.5987C165.59 27.8188 165.815 28.9601 166.266 30.0226C166.716 31.0851 167.343 32.0199 168.147 32.8346C168.95 33.6493 169.881 34.2876 170.944 34.7456C172.006 35.2111 173.147 35.4439 174.367 35.4439ZM169.562 29.4144C169.059 28.5659 168.807 27.6311 168.807 26.6024C168.807 25.5737 169.059 24.6314 169.562 23.7754C170.065 22.9194 170.733 22.2361 171.571 21.733C172.408 21.2299 173.339 20.9784 174.367 20.9784H183.209V32.2264H174.367C173.339 32.2039 172.408 31.9411 171.571 31.438C170.737 30.9387 170.065 30.2629 169.562 29.4144Z" fill="white"/>
<path d="M74.2702 0.274414C71.8494 0.274414 69.8799 2.24394 69.8799 4.66476C69.8799 7.08557 71.8494 9.0551 74.2702 9.0551C76.691 9.0551 78.6606 7.08557 78.6606 4.66476C78.6606 2.24394 76.691 0.274414 74.2702 0.274414ZM74.2702 8.75624C72.0138 8.75624 70.1787 6.9212 70.1787 4.66476C70.1787 2.40832 72.0138 0.57328 74.2702 0.57328C76.5267 0.57328 78.3617 2.40832 78.3617 4.66476C78.3617 6.9212 76.5267 8.75624 74.2702 8.75624Z" fill="white"/>
<path d="M73.3615 2.97754V3.33618H72.441V6.35473H72.0017V3.33618H71.0752V2.97754H73.3615Z" fill="white"/>
<path d="M77.1673 3.00098V6.35127H76.7249V3.85274L75.6102 6.35127H75.2993L74.1816 3.84677V6.35127H73.7393V3.00098H74.2145L75.4547 5.77147L76.695 3.00098H77.1673Z" fill="white"/>
<path d="M102.195 49.3372C102.195 49.8672 102.07 50.3672 101.82 50.8372C101.57 51.3072 101.17 51.6922 100.62 51.9922C100.07 52.2822 99.3653 52.4272 98.5053 52.4272H96.6153V56.6572H94.9053V46.2322H98.5053C99.3053 46.2322 99.9803 46.3722 100.53 46.6522C101.09 46.9222 101.505 47.2922 101.775 47.7622C102.055 48.2322 102.195 48.7572 102.195 49.3372ZM98.5053 51.0322C99.1553 51.0322 99.6403 50.8872 99.9603 50.5972C100.28 50.2972 100.44 49.8772 100.44 49.3372C100.44 48.1972 99.7953 47.6272 98.5053 47.6272H96.6153V51.0322H98.5053ZM103.256 52.4872C103.256 51.6572 103.426 50.9222 103.766 50.2822C104.116 49.6422 104.586 49.1472 105.176 48.7972C105.776 48.4372 106.436 48.2572 107.156 48.2572C107.806 48.2572 108.371 48.3872 108.851 48.6472C109.341 48.8972 109.731 49.2122 110.021 49.5922V48.3922H111.746V56.6572H110.021V55.4272C109.731 55.8172 109.336 56.1422 108.836 56.4022C108.336 56.6622 107.766 56.7922 107.126 56.7922C106.416 56.7922 105.766 56.6122 105.176 56.2522C104.586 55.8822 104.116 55.3722 103.766 54.7222C103.426 54.0622 103.256 53.3172 103.256 52.4872ZM110.021 52.5172C110.021 51.9472 109.901 51.4522 109.661 51.0322C109.431 50.6122 109.126 50.2922 108.746 50.0722C108.366 49.8522 107.956 49.7422 107.516 49.7422C107.076 49.7422 106.666 49.8522 106.286 50.0722C105.906 50.2822 105.596 50.5972 105.356 51.0172C105.126 51.4272 105.011 51.9172 105.011 52.4872C105.011 53.0572 105.126 53.5572 105.356 53.9872C105.596 54.4172 105.906 54.7472 106.286 54.9772C106.676 55.1972 107.086 55.3072 107.516 55.3072C107.956 55.3072 108.366 55.1972 108.746 54.9772C109.126 54.7572 109.431 54.4372 109.661 54.0172C109.901 53.5872 110.021 53.0872 110.021 52.5172ZM115.702 49.5922C115.952 49.1722 116.282 48.8472 116.692 48.6172C117.112 48.3772 117.607 48.2572 118.177 48.2572V50.0272H117.742C117.072 50.0272 116.562 50.1972 116.212 50.5372C115.872 50.8772 115.702 51.4672 115.702 52.3072V56.6572H113.992V48.3922H115.702V49.5922ZM121.744 49.7872V54.3622C121.744 54.6722 121.814 54.8972 121.954 55.0372C122.104 55.1672 122.354 55.2322 122.704 55.2322H123.754V56.6572H122.404C121.634 56.6572 121.044 56.4772 120.634 56.1172C120.224 55.7572 120.019 55.1722 120.019 54.3622V49.7872H119.044V48.3922H120.019V46.3372H121.744V48.3922H123.754V49.7872H121.744ZM129.5 48.2572C130.15 48.2572 130.73 48.3922 131.24 48.6622C131.76 48.9322 132.165 49.3322 132.455 49.8622C132.745 50.3922 132.89 51.0322 132.89 51.7822V56.6572H131.195V52.0372C131.195 51.2972 131.01 50.7322 130.64 50.3422C130.27 49.9422 129.765 49.7422 129.125 49.7422C128.485 49.7422 127.975 49.9422 127.595 50.3422C127.225 50.7322 127.04 51.2972 127.04 52.0372V56.6572H125.33V48.3922H127.04V49.3372C127.32 48.9972 127.675 48.7322 128.105 48.5422C128.545 48.3522 129.01 48.2572 129.5 48.2572ZM142.646 52.3222C142.646 52.6322 142.626 52.9122 142.586 53.1622H136.271C136.321 53.8222 136.566 54.3522 137.006 54.7522C137.446 55.1522 137.986 55.3522 138.626 55.3522C139.546 55.3522 140.196 54.9672 140.576 54.1972H142.421C142.171 54.9572 141.716 55.5822 141.056 56.0722C140.406 56.5522 139.596 56.7922 138.626 56.7922C137.836 56.7922 137.126 56.6172 136.496 56.2672C135.876 55.9072 135.386 55.4072 135.026 54.7672C134.676 54.1172 134.501 53.3672 134.501 52.5172C134.501 51.6672 134.671 50.9222 135.011 50.2822C135.361 49.6322 135.846 49.1322 136.466 48.7822C137.096 48.4322 137.816 48.2572 138.626 48.2572C139.406 48.2572 140.101 48.4272 140.711 48.7672C141.321 49.1072 141.796 49.5872 142.136 50.2072C142.476 50.8172 142.646 51.5222 142.646 52.3222ZM140.861 51.7822C140.851 51.1522 140.626 50.6472 140.186 50.2672C139.746 49.8872 139.201 49.6972 138.551 49.6972C137.961 49.6972 137.456 49.8872 137.036 50.2672C136.616 50.6372 136.366 51.1422 136.286 51.7822H140.861ZM146.039 49.5922C146.289 49.1722 146.619 48.8472 147.029 48.6172C147.449 48.3772 147.944 48.2572 148.514 48.2572V50.0272H148.079C147.409 50.0272 146.899 50.1972 146.549 50.5372C146.209 50.8772 146.039 51.4672 146.039 52.3072V56.6572H144.329V48.3922H146.039V49.5922ZM161.272 49.3372C161.272 49.8672 161.147 50.3672 160.897 50.8372C160.647 51.3072 160.247 51.6922 159.697 51.9922C159.147 52.2822 158.442 52.4272 157.582 52.4272H155.692V56.6572H153.982V46.2322H157.582C158.382 46.2322 159.057 46.3722 159.607 46.6522C160.167 46.9222 160.582 47.2922 160.852 47.7622C161.132 48.2322 161.272 48.7572 161.272 49.3372ZM157.582 51.0322C158.232 51.0322 158.717 50.8872 159.037 50.5972C159.357 50.2972 159.517 49.8772 159.517 49.3372C159.517 48.1972 158.872 47.6272 157.582 47.6272H155.692V51.0322H157.582ZM164.613 49.5922C164.863 49.1722 165.193 48.8472 165.603 48.6172C166.023 48.3772 166.518 48.2572 167.088 48.2572V50.0272H166.653C165.983 50.0272 165.473 50.1972 165.123 50.5372C164.783 50.8772 164.613 51.4672 164.613 52.3072V56.6572H162.903V48.3922H164.613V49.5922ZM172.245 56.7922C171.465 56.7922 170.76 56.6172 170.13 56.2672C169.5 55.9072 169.005 55.4072 168.645 54.7672C168.285 54.1172 168.105 53.3672 168.105 52.5172C168.105 51.6772 168.29 50.9322 168.66 50.2822C169.03 49.6322 169.535 49.1322 170.175 48.7822C170.815 48.4322 171.53 48.2572 172.32 48.2572C173.11 48.2572 173.825 48.4322 174.465 48.7822C175.105 49.1322 175.61 49.6322 175.98 50.2822C176.35 50.9322 176.535 51.6772 176.535 52.5172C176.535 53.3572 176.345 54.1022 175.965 54.7522C175.585 55.4022 175.065 55.9072 174.405 56.2672C173.755 56.6172 173.035 56.7922 172.245 56.7922ZM172.245 55.3072C172.685 55.3072 173.095 55.2022 173.475 54.9922C173.865 54.7822 174.18 54.4672 174.42 54.0472C174.66 53.6272 174.78 53.1172 174.78 52.5172C174.78 51.9172 174.665 51.4122 174.435 51.0022C174.205 50.5822 173.9 50.2672 173.52 50.0572C173.14 49.8472 172.73 49.7422 172.29 49.7422C171.85 49.7422 171.44 49.8472 171.06 50.0572C170.69 50.2672 170.395 50.5822 170.175 51.0022C169.955 51.4122 169.845 51.9172 169.845 52.5172C169.845 53.4072 170.07 54.0972 170.52 54.5872C170.98 55.0672 171.555 55.3072 172.245 55.3072ZM181.556 48.2572C182.196 48.2572 182.761 48.3872 183.251 48.6472C183.751 48.8972 184.141 49.2122 184.421 49.5922V48.3922H186.146V56.7922C186.146 57.5522 185.986 58.2272 185.666 58.8172C185.346 59.4172 184.881 59.8872 184.271 60.2272C183.671 60.5672 182.951 60.7372 182.111 60.7372C180.991 60.7372 180.061 60.4722 179.321 59.9422C178.581 59.4222 178.161 58.7122 178.061 57.8122H179.756C179.886 58.2422 180.161 58.5872 180.581 58.8472C181.011 59.1172 181.521 59.2522 182.111 59.2522C182.801 59.2522 183.356 59.0422 183.776 58.6222C184.206 58.2022 184.421 57.5922 184.421 56.7922V55.4122C184.131 55.8022 183.736 56.1322 183.236 56.4022C182.746 56.6622 182.186 56.7922 181.556 56.7922C180.836 56.7922 180.176 56.6122 179.576 56.2522C178.986 55.8822 178.516 55.3722 178.166 54.7222C177.826 54.0622 177.656 53.3172 177.656 52.4872C177.656 51.6572 177.826 50.9222 178.166 50.2822C178.516 49.6422 178.986 49.1472 179.576 48.7972C180.176 48.4372 180.836 48.2572 181.556 48.2572ZM184.421 52.5172C184.421 51.9472 184.301 51.4522 184.061 51.0322C183.831 50.6122 183.526 50.2922 183.146 50.0722C182.766 49.8522 182.356 49.7422 181.916 49.7422C181.476 49.7422 181.066 49.8522 180.686 50.0722C180.306 50.2822 179.996 50.5972 179.756 51.0172C179.526 51.4272 179.411 51.9172 179.411 52.4872C179.411 53.0572 179.526 53.5572 179.756 53.9872C179.996 54.4172 180.306 54.7472 180.686 54.9772C181.076 55.1972 181.486 55.3072 181.916 55.3072C182.356 55.3072 182.766 55.1972 183.146 54.9772C183.526 54.7572 183.831 54.4372 184.061 54.0172C184.301 53.5872 184.421 53.0872 184.421 52.5172ZM190.102 49.5922C190.352 49.1722 190.682 48.8472 191.092 48.6172C191.512 48.3772 192.007 48.2572 192.577 48.2572V50.0272H192.142C191.472 50.0272 190.962 50.1972 190.612 50.5372C190.272 50.8772 190.102 51.4672 190.102 52.3072V56.6572H188.392V48.3922H190.102V49.5922ZM193.578 52.4872C193.578 51.6572 193.748 50.9222 194.088 50.2822C194.438 49.6422 194.908 49.1472 195.498 48.7972C196.098 48.4372 196.758 48.2572 197.478 48.2572C198.128 48.2572 198.693 48.3872 199.173 48.6472C199.663 48.8972 200.053 49.2122 200.343 49.5922V48.3922H202.068V56.6572H200.343V55.4272C200.053 55.8172 199.658 56.1422 199.158 56.4022C198.658 56.6622 198.088 56.7922 197.448 56.7922C196.738 56.7922 196.088 56.6122 195.498 56.2522C194.908 55.8822 194.438 55.3722 194.088 54.7222C193.748 54.0622 193.578 53.3172 193.578 52.4872ZM200.343 52.5172C200.343 51.9472 200.223 51.4522 199.983 51.0322C199.753 50.6122 199.448 50.2922 199.068 50.0722C198.688 49.8522 198.278 49.7422 197.838 49.7422C197.398 49.7422 196.988 49.8522 196.608 50.0722C196.228 50.2822 195.918 50.5972 195.678 51.0172C195.448 51.4272 195.333 51.9172 195.333 52.4872C195.333 53.0572 195.448 53.5572 195.678 53.9872C195.918 54.4172 196.228 54.7472 196.608 54.9772C196.998 55.1972 197.408 55.3072 197.838 55.3072C198.278 55.3072 198.688 55.1972 199.068 54.9772C199.448 54.7572 199.753 54.4372 199.983 54.0172C200.223 53.5872 200.343 53.0872 200.343 52.5172ZM214.319 48.2572C214.969 48.2572 215.549 48.3922 216.059 48.6622C216.579 48.9322 216.984 49.3322 217.274 49.8622C217.574 50.3922 217.724 51.0322 217.724 51.7822V56.6572H216.029V52.0372C216.029 51.2972 215.844 50.7322 215.474 50.3422C215.104 49.9422 214.599 49.7422 213.959 49.7422C213.319 49.7422 212.809 49.9422 212.429 50.3422C212.059 50.7322 211.874 51.2972 211.874 52.0372V56.6572H210.179V52.0372C210.179 51.2972 209.994 50.7322 209.624 50.3422C209.254 49.9422 208.749 49.7422 208.109 49.7422C207.469 49.7422 206.959 49.9422 206.579 50.3422C206.209 50.7322 206.024 51.2972 206.024 52.0372V56.6572H204.314V48.3922H206.024V49.3372C206.304 48.9972 206.659 48.7322 207.089 48.5422C207.519 48.3522 207.979 48.2572 208.469 48.2572C209.129 48.2572 209.719 48.3972 210.239 48.6772C210.759 48.9572 211.159 49.3622 211.439 49.8922C211.689 49.3922 212.079 48.9972 212.609 48.7072C213.139 48.4072 213.709 48.2572 214.319 48.2572Z" fill="#B9B9B9"/>
</svg>
